HIERARCHY
ROOT joint_Root
{
	OFFSET 0.0 0.0 0.0
	CHANNELS 6 Xposition Yposition Zposition Zrotation Xrotation Yrotation 
	JOINT Hips
	{
		OFFSET -0.726466 93.3139 -2.00062
		CHANNELS 6 Xposition Yposition Zposition Zrotation Xrotation Yrotation 
		JOINT Spine
		{
			OFFSET 15.7357 0.0 0.0
			CHANNELS 6 Xposition Yposition Zposition Zrotation Xrotation Yrotation 
			JOINT Chest
			{
				OFFSET 8.98455 -0.406207 0.0
				CHANNELS 6 Xposition Yposition Zposition Zrotation Xrotation Yrotation 
				JOINT Neck
				{
					OFFSET 16.3773 0.0 0.0
					CHANNELS 6 Xposition Yposition Zposition Zrotation Xrotation Yrotation 
					JOINT Head
					{
						OFFSET 6.45672 0.0 0.0
						CHANNELS 6 Xposition Yposition Zposition Zrotation Xrotation Yrotation 
						End Site
						{
							OFFSET 0.0 0.0 0.0
						}
					}
				}
				JOINT Shoulder_L
				{
					OFFSET 12.9942 -0.242716 4.98039
					CHANNELS 6 Xposition Yposition Zposition Zrotation Xrotation Yrotation 
					JOINT UpperArm_L
					{
						OFFSET 5.34809 0.0 0.0
						CHANNELS 6 Xposition Yposition Zposition Zrotation Xrotation Yrotation 
						JOINT LowerArm_L
						{
							OFFSET 24.3286 1.87007e-05 0.0
							CHANNELS 6 Xposition Yposition Zposition Zrotation Xrotation Yrotation 
							JOINT Hand_L
							{
								OFFSET 22.2916 0.0 0.0
								CHANNELS 6 Xposition Yposition Zposition Zrotation Xrotation Yrotation 
								End Site
								{
									OFFSET 0.0 0.0 0.0
								}
							}
						}
					}
				}
				JOINT Shoulder_R
				{
					OFFSET 12.9945 -0.242716 -4.98039
					CHANNELS 6 Xposition Yposition Zposition Zrotation Xrotation Yrotation 
					JOINT UpperArm_R
					{
						OFFSET -5.34813 0.0 0.0
						CHANNELS 6 Xposition Yposition Zposition Zrotation Xrotation Yrotation 
						JOINT LowerArm_R
						{
							OFFSET -24.3289 0.000322201 0.0
							CHANNELS 6 Xposition Yposition Zposition Zrotation Xrotation Yrotation 
							JOINT Hand_R
							{
								OFFSET -22.2915 -0.000108084 0.0
								CHANNELS 6 Xposition Yposition Zposition Zrotation Xrotation Yrotation 
								End Site
								{
									OFFSET 0.0 0.0 0.0
								}
							}
						}
					}
				}
			}
		}
		JOINT UpperLeg_L
		{
			OFFSET -2.19248 -6.46944 0.0
			CHANNELS 6 Xposition Yposition Zposition Zrotation Xrotation Yrotation 
			JOINT LowerLeg_L
			{
				OFFSET 39.0811 0.0 -1.23785e-05
				CHANNELS 6 Xposition Yposition Zposition Zrotation Xrotation Yrotation 
				JOINT Foot_L
				{
					OFFSET 40.9854 0.0 -1.26872e-05
					CHANNELS 6 Xposition Yposition Zposition Zrotation Xrotation Yrotation 
					JOINT Toes_L
					{
						OFFSET 11.7543 0.0 0.0
						CHANNELS 6 Xposition Yposition Zposition Zrotation Xrotation Yrotation 
						End Site
						{
							OFFSET 0.0 0.0 0.0
						}
					}
				}
			}
		}
		JOINT UpperLeg_R
		{
			OFFSET -2.19251 6.46944 0.0
			CHANNELS 6 Xposition Yposition Zposition Zrotation Xrotation Yrotation 
			JOINT LowerLeg_R
			{
				OFFSET -39.0811 -0.00228153 -0.0401928
				CHANNELS 6 Xposition Yposition Zposition Zrotation Xrotation Yrotation 
				JOINT Foot_R
				{
					OFFSET -40.9854 0.0 0.0
					CHANNELS 6 Xposition Yposition Zposition Zrotation Xrotation Yrotation 
					JOINT Toes_R
					{
						OFFSET -11.7543 0.0 0.0
						CHANNELS 6 Xposition Yposition Zposition Zrotation Xrotation Yrotation 
						End Site
						{
							OFFSET 0.0 0.0 0.0
						}
					}
				}
			}
		}
	}
}
MOTION
Frames:	4
Frame Time:	0.0333333
0.000000 0.000000 0.000000 0.000000 0.000000 -0.000000 -2.579690 85.632800 -44.474800 84.701300 2.803240 -2.487140 15.735700 0.000005 -0.000001 76.087700 81.925100 -72.884200 8.984550 -0.406207 -0.000000 8.040020 -3.858580 6.673980 16.377300 -0.000001 -0.000001 -1.114920 -2.524670 -1.529060 6.456720 -0.000001 -0.000000 -2.998050 1.360100 -0.286812 12.994200 -0.242716 4.980390 -88.433900 -5.108990 -72.932200 5.348090 -0.000007 -0.000001 -74.215400 35.279700 -13.972500 24.328600 0.000019 0.000005 -2.937660 0.209757 -94.043100 22.291600 -0.000001 0.000005 2.684650 5.646640 -14.722500 12.994500 -0.242716 -4.980390 87.727700 5.337540 -66.896900 -5.348130 -0.000001 -0.000004 -63.464200 34.106500 2.915290 -24.328900 0.000322 -0.000009 2.072860 -0.195236 -95.379500 -22.291500 -0.000108 -0.000004 21.134900 5.660760 -16.112600 -2.192480 -6.469440 -0.000000 -173.577000 -4.699020 -7.973830 39.081100 -0.000007 -0.000012 -0.270495 -0.032413 96.835300 40.985400 -0.000006 -0.000013 7.974170 -11.967600 -46.857700 11.754300 -0.000000 0.000003 -0.007715 -0.085702 -20.066400 -2.192510 6.469440 -0.000001 -167.485000 7.297500 147.316000 -39.081100 -0.002282 -0.040193 0.045362 -0.036707 48.922200 -40.985400 0.000008 0.000006 11.573900 -3.310730 -70.042100 -11.754300 -0.000006 -0.000006 -0.009093 -0.096731 -20.513300
0.000000 0.000000 0.000000 0.000000 0.000000 -0.000000 -2.538600 83.235900 -36.338300 83.618200 1.106340 0.654545 15.735700 0.000005 -0.000001 83.966400 80.736000 -80.371300 8.984550 -0.406207 -0.000000 10.731800 -1.840450 7.359740 16.377300 -0.000001 -0.000001 -1.799200 -1.553540 -1.367940 6.456720 -0.000001 -0.000000 -3.581110 1.311990 -1.952890 12.994200 -0.242716 4.980390 -88.844200 -3.617570 -72.267600 5.348090 -0.000007 -0.000001 -75.881500 31.514100 -8.588740 24.328600 0.000019 0.000005 1.039970 0.135907 -82.955500 22.291600 -0.000001 0.000005 3.940350 5.665950 -16.768200 12.994500 -0.242716 -4.980390 87.088600 7.366830 -68.364300 -5.348130 -0.000001 -0.000004 -54.263100 35.166000 -12.418100 -24.328900 0.000322 -0.000009 1.034790 -0.079446 -94.406400 -22.291500 -0.000108 -0.000004 24.712500 5.662590 -16.360200 -2.192480 -6.469440 -0.000000 -174.442000 -3.952760 -15.591400 39.081100 -0.000007 -0.000012 -0.601547 -0.220808 110.157000 40.985400 -0.000006 -0.000013 10.770900 -10.035100 -46.445400 11.754300 -0.000000 0.000003 -0.008103 -0.088884 -20.196300 -2.192510 6.469440 -0.000001 -166.825000 7.259060 152.651000 -39.081100 -0.002282 -0.040193 0.219273 -0.138678 57.305500 -40.985400 0.000008 0.000006 13.108800 -5.336440 -79.102400 -11.754300 -0.000006 -0.000006 -0.005434 -0.065609 -19.242900
0.000000 0.000000 0.000000 0.000000 0.000000 -0.000000 -2.319790 82.481100 -28.302100 85.197900 0.956719 -0.213057 15.735700 0.000005 -0.000001 88.276600 81.038500 -85.073400 8.984550 -0.406207 -0.000000 10.170300 -0.468176 6.443890 16.377300 -0.000001 -0.000001 -1.299200 -1.537420 -1.345910 6.456720 -0.000001 -0.000000 -3.091130 0.855185 -2.830680 12.994200 -0.242716 4.980390 -88.906000 -3.358720 -71.946800 5.348090 -0.000007 -0.000001 -76.512700 29.494500 -3.237130 24.328600 0.000019 0.000005 12.571400 3.012010 -76.742800 22.291600 -0.000001 0.000005 3.782660 5.670220 -17.511500 12.994500 -0.242716 -4.980390 87.329700 7.034170 -69.151000 -5.348130 -0.000001 -0.000004 -49.060100 33.022900 -26.137200 -24.328900 0.000322 -0.000009 3.948580 -0.424882 -96.125700 -22.291500 -0.000108 -0.000004 23.831700 5.670280 -17.459000 -2.192480 -6.469440 -0.000000 -178.323000 -0.932299 -27.389700 39.081100 -0.000007 -0.000012 -0.828364 -0.404633 116.033000 40.985400 -0.000006 -0.000013 11.256500 -7.087240 -48.818300 11.754300 -0.000000 0.000003 -0.007821 -0.086578 -20.102100 -2.192510 6.469440 -0.000001 -169.522000 10.068900 157.597000 -39.081100 -0.002282 -0.040193 0.232816 -0.138972 58.815400 -40.985400 0.000008 0.000006 13.518000 -3.809440 -85.422700 -11.754300 -0.000006 -0.000006 -0.005584 -0.067006 -19.299800
0.000000 0.000000 0.000000 0.000000 0.000000 -0.000000 -1.574640 83.700700 -19.609700 87.843700 -1.364100 -1.626830 15.735700 0.000005 -0.000001 98.896800 81.719600 -96.874400 8.984550 -0.406207 -0.000000 8.559750 2.562890 3.849700 16.377300 -0.000001 -0.000001 -0.542620 -1.721110 -0.757545 6.456720 -0.000001 -0.000000 -1.482730 -0.880703 -2.100790 12.994200 -0.242716 4.980390 -88.750500 -3.565500 -70.675500 5.348090 -0.000007 -0.000001 -74.791800 31.917400 2.461750 24.328600 0.000019 0.000005 13.842900 2.857800 -78.568700 22.291600 -0.000001 0.000005 0.620741 5.673780 -18.022600 12.994500 -0.242716 -4.980390 88.004100 5.487850 -69.980500 -5.348130 -0.000001 -0.000004 -48.651400 30.760700 -32.946300 -24.328900 0.000322 -0.000009 4.666400 -0.904669 -100.957000 -22.291500 -0.000108 -0.000004 24.217000 5.671140 -17.580900 -2.192480 -6.469440 -0.000000 177.491000 -0.317095 -35.357500 39.081100 -0.000007 -0.000012 -0.681344 -0.274370 111.934000 40.985400 -0.000006 -0.000013 9.960120 -7.154380 -53.717400 11.754300 -0.000000 0.000003 -0.008348 -0.090856 -20.276900 -2.192510 6.469440 -0.000001 -174.441000 9.848900 165.572000 -39.081100 -0.002282 -0.040193 0.180469 -0.131657 53.393700 -40.985400 0.000008 0.000006 13.141400 -0.897215 -85.781000 -11.754300 -0.000006 -0.000006 -1.083540 -1.225880 -22.262700
